<svg xmlns="http://www.w3.org/2000/svg" viewBox="0 0 650 348"><defs><style>.cls-1{fill:#404040;}.cls-2{fill:#333;}.cls-3{fill:#ffa800;}.cls-4{fill:#fbd303;}</style></defs><title>ISOLOGO_VeMine</title><g id="Capa_1" data-name="Capa 1"><polygon class="cls-1" points="342.21 192.53 356.07 138.63 367.89 150.5 345.02 188.12 367.26 160.24 376.44 160.24 342.21 192.53"/><path class="cls-2" d="M201.51,103s42.35,25.68,65.42-7.94L250,52.3a10.11,10.11,0,0,1,6.29-11.07s9.89-1.64,11.71,2.95L284.93,87S319,97.23,339.58,52.75c1.69-3.66,5.28,8.44,5.35,8.66,7.68,27.8,8.52,57.3,4.07,85.72-2,13.09-5.62,25.75-9.09,38.51-2.54,9.33-6.38,20-16.8,22.76-18.72,4.89-38.74-13.1-52-23.68s-25.36-23-36.76-35.72Q223.62,137,214,124.14c-3.09-4.11-6.12-8.26-9-12.5C204.22,110.59,200.14,102.22,201.51,103Z"/><path class="cls-3" d="M203.1,99.11s42.35,25.68,65.42-7.94l-16.92-42.8a10.11,10.11,0,0,1,6.29-11.07s9.89-1.64,11.71,2.95L286.52,83s34.1,10.25,54.65-34.23c1.69-3.66,5.28,8.44,5.35,8.66,7.68,27.8,8.52,57.3,4.07,85.72-2,13.09-5.62,25.75-9.09,38.51-2.54,9.33-6.38,20-16.8,22.76-18.72,4.89-38.74-13.1-52-23.68s-25.36-23-36.76-35.72q-10.73-12-20.38-24.86c-3.09-4.11-6.12-8.26-9-12.5C205.81,106.66,201.73,98.29,203.1,99.11Z"/><path class="cls-4" d="M314.15,94.48c.55,1.35,9.61-4.63,10.58-5.41,5.72-4.54,6.64-10.19,10.21-15.93,3.89-6.25,6.62,8.69,7,11a181.46,181.46,0,0,1-11.33,101.75,6,6,0,0,1-1.87,2.81c-5.22,3.56-1.94-17.57-1.8-19.91a151.61,151.61,0,0,0-.61-29.19A184.6,184.6,0,0,0,314.15,94.48Z"/><path class="cls-3" d="M94,242.65l34.77-69h29.1L94,308.94,30.13,173.67H59.5Z"/><path class="cls-3" d="M246.27,305.5H162.51V173.58h83.76v28H194.86v22.87H221l7.53,27.8H194.86V277.7h51.41Z"/><path class="cls-2" d="M373.82,171.91V305.59l-35-.09V243.21l-27.7,26.5-25.75-25.47-.09,61.36h-34.4V171.91l60.24,51.5Z"/><path class="cls-2" d="M378.47,173.67h32.35V305.5l-32.35-.09Z"/><path class="cls-2" d="M531.86,305.59l-83.95-67.4.09,67H415.47V171.72l84,62.75V173.58l32.35.19Z"/><path class="cls-2" d="M620.27,305.5H536.51V173.58h83.76v28H568.86v22.87H595l7.53,27.8H568.86V277.7h51.41Z"/></g></svg>